<?xml version="1.0" encoding="UTF-8" standalone="no"?>
<!-- Created with Inkscape (http://www.inkscape.org/) -->

<svg
   xmlns:dc="http://purl.org/dc/elements/1.1/"
   xmlns:cc="http://creativecommons.org/ns#"
   xmlns:rdf="http://www.w3.org/1999/02/22-rdf-syntax-ns#"
   xmlns:svg="http://www.w3.org/2000/svg"
   xmlns="http://www.w3.org/2000/svg"
   xmlns:sodipodi="http://sodipodi.sourceforge.net/DTD/sodipodi-0.dtd"
   xmlns:inkscape="http://www.inkscape.org/namespaces/inkscape"
   width="1009"
   height="131.11046"
   id="svg2"
   version="1.1"
   inkscape:version="0.47 r22583"
   sodipodi:docname="bowling_scoresheet2.svg">
  <title
     id="title3604">Bowling Scoresheet</title>
  <defs
     id="defs4" />
  <sodipodi:namedview
     id="base"
     pagecolor="#ffffff"
     bordercolor="#666666"
     borderopacity="1.0"
     inkscape:pageopacity="0.0"
     inkscape:pageshadow="2"
     inkscape:zoom="0.98994949"
     inkscape:cx="553.63353"
     inkscape:cy="42.525741"
     inkscape:document-units="px"
     inkscape:current-layer="layer1"
     showgrid="false"
     inkscape:window-width="1280"
     inkscape:window-height="753"
     inkscape:window-x="-4"
     inkscape:window-y="-4"
     inkscape:window-maximized="1" />
  <metadata
     id="metadata7">
    <rdf:RDF>
      <cc:Work
         rdf:about="">
        <dc:format>image/svg+xml</dc:format>
        <dc:type
           rdf:resource="http://purl.org/dc/dcmitype/StillImage" />
        <dc:title>Bowling Scoresheet</dc:title>
        <cc:license
           rdf:resource="http://creativecommons.org/licenses/publicdomain/" />
        <dc:date>2010-05-06</dc:date>
        <dc:creator>
          <cc:Agent>
            <dc:title>mazeo</dc:title>
          </cc:Agent>
        </dc:creator>
        <dc:subject>
          <rdf:Bag>
            <rdf:li>bowling</rdf:li>
            <rdf:li>scoresheet</rdf:li>
            <rdf:li>bowling scoresheet</rdf:li>
            <rdf:li>sports</rdf:li>
          </rdf:Bag>
        </dc:subject>
        <dc:publisher>
          <cc:Agent>
            <dc:title>openclipart.org</dc:title>
          </cc:Agent>
        </dc:publisher>
        <dc:description>A bowling scoresheet with a sample score filled in. Typeface is Tuffy (public domain) from http://openfontlibrary.org/</dc:description>
      </cc:Work>
      <cc:License
         rdf:about="http://creativecommons.org/licenses/publicdomain/">
        <cc:permits
           rdf:resource="http://creativecommons.org/ns#Reproduction" />
        <cc:permits
           rdf:resource="http://creativecommons.org/ns#Distribution" />
        <cc:permits
           rdf:resource="http://creativecommons.org/ns#DerivativeWorks" />
      </cc:License>
    </rdf:RDF>
  </metadata>
  <g
     inkscape:label="Layer 1"
     inkscape:groupmode="layer"
     id="layer1"
     transform="translate(515.43943,-443.77745)">
    <path
       style="fill:#000000;stroke:#000000;stroke-opacity:1;stroke-width:1.5;stroke-miterlimit:4;stroke-dasharray:none"
       d="m -515.43943,526.38792 0,-48.5 504.500008,0 504.499992,0 0,48.5 0,48.5 -504.499992,0 -504.500008,0 0,-48.5 z m 96,24 0,-23.5 -24,0 -24,0 0,-24 0,-24 -23.5,0 -23.5,0 0,47.5 0,47.5 47.5,0 47.5,0 0,-23.5 z m -40.29275,14.48436 c -1.40936,-1.1086 -3.09726,-3.63606 -3.75089,-5.61658 -2.42608,-7.35111 0.68713,-18.26489 5.47871,-19.20634 6.01968,-1.18274 9.76493,3.74137 9.76493,12.83856 0,6.71026 -2.21222,11.67395 -5.813,13.04296 -3.1727,1.20626 -2.68486,1.29718 -5.67975,-1.0586 z m 6.88776,-3.09216 c 2.72534,-3.01549 2.72295,-14.77839 -0.004,-17.79121 -2.52929,-2.79483 -4.01405,-2.64915 -6.61442,0.64901 -1.84145,2.33559 -2.11222,3.7487 -1.79682,9.37734 0.52654,9.39667 4.02361,12.62361 8.41485,7.76486 z m -26.25907,-2.79497 c 5.6535,-5.85601 6.66406,-7.43743 6.66406,-10.42857 0,-6.17555 -4.41013,-8.51089 -8.61407,-4.5615 -3.40576,3.19955 -5.43486,1.85086 -2.15297,-1.43102 4.80252,-4.80253 12.09987,-2.74937 13.31866,3.74731 0.78573,4.1883 -0.47716,6.72739 -6.37962,12.82655 l -4.59682,4.75 5.71241,0 c 3.14183,0 5.71241,0.45 5.71241,1 0,0.58501 -3.38802,1 -8.16406,1 l -8.16406,0 6.66406,-6.90277 z m 155.66406,-8.59723 0,-23.5 -24,0 -24,0 0,-24 0,-24 -23.5,0 -23.5,0 0,47.5 0,47.5 47.5,0 47.5,0 0,-23.5 z m -60,15.78056 c -2.00304,-0.72315 -5,-3.38178 -5,-4.43555 0,-1.34275 2.00575,-0.98212 3.64286,0.65499 3.64047,3.64047 10.19746,-0.0158 8.949,-4.99004 -0.45832,-1.82608 -1.50637,-2.74286 -3.61853,-3.16529 -3.56003,-0.71201 -4.01681,-3.34467 -0.58032,-3.34467 3.84318,0 5.1276,-6.11583 1.67273,-7.96482 -2.64775,-1.41703 -4.6599,-1.29816 -6.33213,0.37407 -0.8029,0.8029 -1.95312,1.07312 -2.67328,0.62804 -1.92548,-1.19001 2.7218,-4.03729 6.5896,-4.03729 2.27125,0 3.8087,0.76759 5.27749,2.63486 2.42782,3.08647 2.60403,5.16138 0.67249,7.91903 -1.20011,1.71341 -1.20011,2.27238 0,3.91364 2.2271,3.04573 1.78088,8.24623 -0.84991,9.90529 -2.94381,1.85647 -5.88595,2.58071 -7.75,1.90774 z m 20.23411,-0.82417 c -2.45002,-1.03016 -4.23411,-3.15305 -4.23411,-5.03818 0,-1.26199 2.69976,-0.12862 3.76793,1.58179 2.6117,4.182 9.23207,1.18898 9.23207,-4.17375 0,-4.0972 -3.12598,-6.14971 -8.08901,-5.31121 l -4.21395,0.71194 0.65148,-4.75306 c 0.35831,-2.61418 0.65148,-5.59026 0.65148,-6.61349 0,-1.60719 0.81671,-1.86043 6,-1.86043 4.66667,0 6,0.33333 6,1.5 0,1.13333 -1.22222,1.5 -5,1.5 l -5,0 0,3.40102 c 0,3.24341 0.16328,3.3964 3.52337,3.30115 4.5802,-0.12983 7.6332,2.83769 7.76675,7.54931 0.19799,6.98487 -4.9216,10.78424 -11.05601,8.20491 z m -34.74831,-44.47937 c -0.34773,-0.56263 0.97571,-3.89825 2.94098,-7.41248 1.96527,-3.51423 3.57322,-6.57596 3.57322,-6.80383 0,-0.22788 -1.3447,-0.21696 -2.98823,0.0243 -2.39954,0.35218 -3.68005,-0.25325 -6.5,-3.07319 -2.83148,-2.83149 -3.51177,-4.27773 -3.51177,-7.46576 0,-9.73276 12.52574,-13.78001 18.38002,-5.93885 3.44297,4.6115 2.61348,8.98248 -3.98518,20.99964 -3.22942,5.88126 -6.18782,10.69319 -6.57423,10.69319 -0.38642,0 -0.98708,-0.46034 -1.33481,-1.02298 z m 8.68546,-19.63201 c 2.27863,-2.06213 2.37042,-7.08898 0.17375,-9.51627 -2.44129,-2.6976 -8.78521,-2.46605 -10.78831,0.39377 -2.12332,3.03146 -1.9542,6.37999 0.4433,8.77749 2.44534,2.44534 7.65515,2.62206 10.17126,0.34501 z m 161.82874,49.15499 0,-23.5 -24,0 -24,0 0,-24 0,-24 -23.5,0 -23.5,0 0,47.5 0,47.5 47.5,0 47.5,0 0,-23.5 z m -60.76589,14.95639 c -2.45002,-1.03016 -4.23411,-3.15305 -4.23411,-5.03818 0,-1.26199 2.69976,-0.12862 3.76793,1.58179 2.6117,4.182 9.23207,1.18898 9.23207,-4.17375 0,-4.0972 -3.12598,-6.14971 -8.08901,-5.31121 l -4.21395,0.71194 0.65148,-4.75306 c 0.35831,-2.61418 0.65148,-5.59026 0.65148,-6.61349 0,-1.60719 0.81671,-1.86043 6,-1.86043 4.66667,0 6,0.33333 6,1.5 0,1.13333 -1.22222,1.5 -5,1.5 l -5,0 0,3.40102 c 0,3.24341 0.16328,3.3964 3.52337,3.30115 4.5802,-0.12983 7.6332,2.83769 7.76675,7.54931 0.19799,6.98487 -4.9216,10.78424 -11.05601,8.20491 z m 22.10183,-6.35916 c 5.6535,-5.85601 6.66406,-7.43743 6.66406,-10.42857 0,-6.17555 -4.41013,-8.51089 -8.61407,-4.5615 -3.40576,3.19955 -5.43486,1.85086 -2.15298,-1.43102 4.80253,-4.80253 12.09988,-2.74937 13.31867,3.74731 0.78573,4.1883 -0.47716,6.72739 -6.37962,12.82655 l -4.59682,4.75 5.71241,0 c 3.14183,0 5.71241,0.45 5.71241,1 0,0.58501 -3.38802,1 -8.16406,1 l -8.16406,0 6.66406,-6.90277 z m -36.74125,-38.62467 c -3.17904,-1.65785 -5.51318,-4.26879 -5.56289,-6.22256 -0.0514,-2.02021 2.06261,-1.44017 4.55578,1.25 3.07036,3.31297 8.63004,3.45509 10.85572,0.27749 4.02738,-5.7499 -0.0601,-14.70999 -6.15002,-13.48118 -1.5363,0.31 -3.46828,0.81541 -4.29328,1.12315 -3.44686,1.28575 -4.09812,-0.67803 -2.89889,-8.74112 l 1.14201,-7.67834 7.87844,0 c 6.33639,0 7.87844,0.29359 7.87844,1.5 0,1.17647 -1.375,1.5 -6.375,1.5 -6.34,0 -6.37843,0.0172 -7,3.125 -1.22436,6.1218 -1.03275,6.42184 3.85298,6.03326 3.87223,-0.30797 4.87683,0.0427 7.42646,2.59233 5.88112,5.88113 4.63868,15.87105 -2.33633,18.7854 -4.37495,1.82797 -5.35992,1.82101 -8.97342,-0.0634 z m 171.40531,30.02744 0,-23.5 -24,0 -24,0 0,-24 0,-24 -23.5,0 -23.5,0 0,47.5 0,47.5 47.5,0 47.5,0 0,-23.5 z m -60,15.79028 c -6.40285,-2.35308 -6.65872,-8.32396 -0.80523,-18.79002 3.9257,-7.01918 5.80523,-9.07124 5.80523,-6.33812 0,0.63918 -1.14397,3.11418 -2.54215,5.5 l -2.54216,4.33786 2.58761,0 c 3.47538,0 7.4967,4.16577 7.4967,7.76598 0,2.72278 -3.09136,7.23402 -4.95717,7.23402 -0.48359,0 -1.47856,0.18935 -2.21104,0.42077 -0.73249,0.23143 -2.00679,0.17271 -2.83179,-0.13049 z m 6.55988,-4.74132 c 2.01942,-3.08203 1.08174,-6.34982 -2.04744,-7.13519 -3.78038,-0.94882 -5.90396,-0.0853 -6.92417,2.81566 -1.97795,5.62429 5.69585,9.31897 8.97161,4.31953 z m 16.44012,-6.11635 c 0,-10.11231 -0.0861,-10.54005 -2,-9.93261 -2.67232,0.84816 -2.53037,-0.65311 0.31445,-3.32569 4.29133,-4.03149 4.68555,-3.12066 4.68555,10.82569 0,10.88889 -0.24359,13 -1.5,13 -1.2387,0 -1.5,-1.84082 -1.5,-10.56739 z m -39,-35.30133 c 0,-0.4778 2.4736,-7.1153 5.49689,-14.75 3.02329,-7.6347 5.49829,-14.21878 5.5,-14.63128 0.002,-0.4125 -3.82189,-0.75 -8.49689,-0.75 -6.88889,0 -8.5,-0.28431 -8.5,-1.5 0,-1.2433 1.90078,-1.5 11.10699,-1.5 8.45368,0 11.00184,0.29861 10.66682,1.25 -7.09001,20.13418 -12.49111,32.74679 -14.02381,32.74829 -0.9625,9.4e-4 -1.75,-0.38921 -1.75,-0.86701 z m 172.000008,30.36872 0,-23.5 -24,0 -24,0 0,-24 0,-24 -23.500008,0 -23.5,0 0,47.5 0,47.5 47.500008,0 47.5,0 0,-23.5 z m -59.771594,15.74517 c -0.90344,-0.30283 -0.37553,-1.99239 1.82339,-5.8357 l 3.09498,-5.40947 -2.89908,0 c -6.363141,0 -9.607394,-8.43455 -4.93325,-12.82569 5.04174,-4.73647 12.685554,-1.51383 12.685554,5.34824 0,4.30801 -7.857964,19.36407 -9.771594,18.72262 z m 5.94285,-14.90016 c 1.00581,-0.91024 1.82874,-2.68472 1.82874,-3.94329 0,-2.28374 -3.30314,-5.40172 -5.72251,-5.40172 -1.75743,0 -5.27749,3.66847 -5.27749,5.5 0,2.0155 3.593,5.5 5.67126,5.5 0.91919,0 2.49419,-0.74474 3.5,-1.65499 z m 16.828744,4.0876 c 0,-10.11231 -0.0861,-10.54005 -2,-9.93261 -2.67232,0.84816 -2.53037,-0.65311 0.31445,-3.32569 4.29133,-4.03149 4.68555,-3.12066 4.68555,10.82569 0,10.88889 -0.24359,13 -1.5,13 -1.2387,0 -1.5,-1.84082 -1.5,-10.56739 z m 133,-4.93261 0,-23.5 -24,0 -24,0 0,-24 0,-24 -23.5,0 -23.5,0 0,47.5 0,47.5 47.5,0 47.5,0 0,-23.5 z m -30.29275,14.48436 c -1.40936,-1.1086 -3.09726,-3.63606 -3.75089,-5.61658 -2.42608,-7.35111 0.68713,-18.26489 5.47871,-19.20634 6.01968,-1.18274 9.76493,3.74137 9.76493,12.83856 0,6.71026 -2.21222,11.67395 -5.813,13.04296 -3.1727,1.20626 -2.68486,1.29718 -5.67975,-1.0586 z m 6.88776,-3.09216 c 2.72534,-3.01549 2.72295,-14.77839 -0.004,-17.79121 -2.52929,-2.79483 -4.01406,-2.64915 -6.61442,0.64901 -1.84145,2.33559 -2.11222,3.7487 -1.79682,9.37734 0.52653,9.39667 4.02361,12.62361 8.41485,7.76486 z m -45.595011,-6.45959 c 0,-10.11231 -0.0861,-10.54005 -1.999999,-9.93261 -2.67232,0.84816 -2.53037,-0.65311 0.31445,-3.32569 4.291329,-4.03149 4.685549,-3.12066 4.685549,10.82569 0,10.88889 -0.24359,13 -1.5,13 -1.2387,0 -1.5,-1.84082 -1.5,-10.56739 z m 19.33594,3.66462 c 5.653501,-5.85601 6.664061,-7.43743 6.664061,-10.42857 0,-6.17555 -4.41013,-8.51089 -8.6140707,-4.5615 -3.40576,3.19955 -5.43486,1.85086 -2.15298,-1.43102 4.8025307,-4.80253 12.0998807,-2.74937 13.3186707,3.74731 0.78573,4.1883 -0.47716,6.72739 -6.37962,12.82655 l -4.5968207,4.75 5.7124107,0 c 3.14183,0 5.71241,0.45 5.71241,1 0,0.58501 -3.38802,1 -8.16406,1 l -8.1640607,0 6.6640597,-6.90277 z m 145.664053,-8.59723 0,-23.5 -24,0 -24,0 0,-24 0,-24 -23.499992,0 -23.5,0 0,47.5 0,47.5 47.499992,0 47.5,0 0,-23.5 z m -50,15.78056 c -2.00304,-0.72315 -5,-3.38178 -5,-4.43555 0,-1.34275 2.00575,-0.98212 3.64286,0.65499 3.64047,3.64047 10.19746,-0.0158 8.949,-4.99004 -0.45832,-1.82608 -1.50637,-2.74286 -3.61853,-3.16529 -3.56003,-0.71201 -4.01681,-3.34467 -0.58032,-3.34467 3.84318,0 5.1276,-6.11583 1.67273,-7.96482 -2.64775,-1.41703 -4.6599,-1.29816 -6.33213,0.37407 -0.8029,0.8029 -1.95312,1.07312 -2.67328,0.62804 -1.92547,-1.19001 2.7218,-4.03729 6.5896,-4.03729 2.27125,0 3.8087,0.76759 5.27749,2.63486 2.42782,3.08647 2.60403,5.16138 0.67249,7.91903 -1.20011,1.71341 -1.20011,2.27238 0,3.91364 2.2271,3.04573 1.78088,8.24623 -0.84991,9.90529 -2.94381,1.85647 -5.88595,2.58071 -7.75,1.90774 z m 21.22841,-0.0354 c -0.90344,-0.30283 -0.37553,-1.99239 1.82339,-5.8357 l 3.09498,-5.40946 -2.89908,0 c -6.36314,0 -9.60739,-8.43455 -4.93325,-12.82569 5.04174,-4.73647 12.68555,-1.51383 12.68555,5.34824 0,4.30801 -7.85796,19.36407 -9.77159,18.72262 z m 5.94285,-14.90016 c 1.00581,-0.91023 1.82874,-2.68471 1.82874,-3.94328 0,-2.28374 -3.30314,-5.40172 -5.72251,-5.40172 -1.75743,0 -5.27749,3.66847 -5.27749,5.5 0,2.0155 3.593,5.5 5.67126,5.5 0.91919,0 2.49419,-0.74474 3.5,-1.65499 z m -46.171252,4.08761 c 0,-10.11231 -0.0861,-10.54005 -2,-9.93261 -2.67232,0.84816 -2.53037,-0.65311 0.31445,-3.32569 4.29133,-4.03149 4.68555,-3.12066 4.68555,10.82569 0,10.88889 -0.24359,13 -1.5,13 -1.2387,0 -1.5,-1.84082 -1.5,-10.56739 z m 164.999992,-4.93261 0,-23.5 -24,0 -24,0 0,-24 0,-24 -23.5,0 -23.5,0 0,47.5 0,47.5 47.5,0 47.5,0 0,-23.5 z m -29.643,15.48378 c -2.72901,-1.06991 -5.357,-4.79605 -5.357,-7.5955 0,-1.19169 0.84721,-3.21297 1.88268,-4.49173 1.70662,-2.10757 1.74226,-2.53933 0.38113,-4.61668 -1.24753,-1.90397 -1.29086,-2.80036 -0.2561,-5.29849 2.0597,-4.97254 8.84151,-5.43115 12.26408,-0.82934 1.80109,2.42166 1.84527,2.90694 0.5086,5.58635 -1.32752,2.66109 -1.29234,3.14611 0.37789,5.20875 2.46819,3.04808 2.32182,6.41715 -0.40828,9.39791 -2.5787,2.81545 -6.28585,3.85688 -9.393,2.63873 z m 7.12557,-3.60921 c 0.98397,-0.98397 1.50546,-2.8514 1.32143,-4.73195 -0.61694,-6.3043 -10.804,-6.05489 -10.804,0.26451 0,5.39199 5.81735,8.13266 9.48257,4.46744 z m 0.17583,-15.14965 c 0.68153,-2.71545 -1.55159,-5.22492 -4.64953,-5.22492 -4.16304,0 -5.63558,6.46269 -1.79617,7.88298 3.27828,1.21272 5.72771,0.20263 6.4457,-2.65806 z m -46.6584,8.20769 c 0,-10.11231 -0.0861,-10.54005 -2,-9.93261 -2.67232,0.84816 -2.53037,-0.65311 0.31445,-3.32569 4.29133,-4.03149 4.68555,-3.12066 4.68555,10.82569 0,10.88889 -0.24359,13 -1.5,13 -1.2387,0 -1.5,-1.84082 -1.5,-10.56739 z m 24,7.11729 0,-3.45009 -5.42418,-0.29991 -5.42418,-0.2999 5.17418,-9.2268 c 2.8458,-5.07474 5.73668,-9.23724 6.42418,-9.25 0.90378,-0.0168 1.25,2.33109 1.25,8.4768 0,7.83333 0.15686,8.5 2,8.5 1.1,0 2,0.45 2,1 0,0.55 -0.9,1 -2,1 -1.61905,0 -2,0.66667 -2,3.5 0,1.925 -0.45,3.5 -1,3.5 -0.55,0 -1,-1.55254 -1,-3.4501 z m 0,-11.5499 c 0,-3.3 -0.21742,-6 -0.48315,-6 -0.38493,0 -4.78887,7.80909 -6.34445,11.25 -0.18649,0.4125 1.27343,0.75 3.24427,0.75 l 3.58333,0 0,-6 z m -29.5142,-30.02298 c -0.34773,-0.56263 0.97571,-3.89825 2.94098,-7.41248 1.96527,-3.51423 3.57322,-6.57596 3.57322,-6.80383 0,-0.22788 -1.3447,-0.21696 -2.98823,0.0243 -2.39954,0.35218 -3.68005,-0.25325 -6.5,-3.07319 -2.83148,-2.83149 -3.51177,-4.27773 -3.51177,-7.46576 0,-9.73276 12.52574,-13.78001 18.38002,-5.93885 3.44297,4.6115 2.61348,8.98248 -3.98518,20.99964 -3.22942,5.88126 -6.18782,10.69319 -6.57423,10.69319 -0.38642,0 -0.98708,-0.46034 -1.33481,-1.02298 z m 8.68546,-19.63201 c 2.27863,-2.06213 2.37042,-7.08898 0.17375,-9.51627 -2.44129,-2.6976 -8.78521,-2.46605 -10.78831,0.39377 -2.12332,3.03146 -1.9542,6.37999 0.4433,8.77749 2.44534,2.44534 7.65515,2.62206 10.17126,0.34501 z m 161.82874,49.15499 0,-23.5 -24,0 -24,0 0,-24 0,-24 -23.5,0 -23.5,0 0,47.5 0,47.5 47.5,0 47.5,0 0,-23.5 z m -50,15.79028 c -6.40285,-2.35308 -6.65872,-8.32396 -0.80523,-18.79002 3.9257,-7.01918 5.80523,-9.07124 5.80523,-6.33812 0,0.63918 -1.14397,3.11418 -2.54215,5.5 l -2.54216,4.33786 2.58761,0 c 3.47538,0 7.4967,4.16577 7.4967,7.76598 0,2.72278 -3.09136,7.23402 -4.95717,7.23402 -0.48359,0 -1.47856,0.18935 -2.21104,0.42077 -0.73249,0.23143 -2.00679,0.17271 -2.83179,-0.13049 z m 6.55988,-4.74132 c 2.01942,-3.08203 1.08174,-6.34982 -2.04744,-7.13519 -3.78038,-0.94882 -5.90396,-0.0853 -6.92417,2.81566 -1.97795,5.62429 5.69585,9.31897 8.97161,4.31953 z m -25.55988,-6.11635 c 0,-10.11231 -0.0861,-10.54005 -2,-9.93261 -2.67232,0.84816 -2.53037,-0.65311 0.31445,-3.32569 4.29133,-4.03149 4.68555,-3.12066 4.68555,10.82569 0,10.88889 -0.24359,13 -1.5,13 -1.2387,0 -1.5,-1.84082 -1.5,-10.56739 z m 42.55806,-0.35907 c 2.44307,-6.07791 4.44194,-11.28087 4.44194,-11.56214 0,-0.28127 -2.925,-0.5114 -6.5,-0.5114 -5.11111,0 -6.5,-0.32051 -6.5,-1.5 0,-1.21661 1.6186,-1.5 8.56739,-1.5 7.70715,0 8.51088,0.17571 8.00459,1.75 -3.16777,9.85002 -9.43072,23.7917 -10.80687,24.05672 -1.31418,0.25309 -0.7471,-1.92616 2.79295,-10.73318 z M 272.93887,520.451 c -6.66256,-2.89971 -8.65835,-11.37394 -3.81853,-16.21375 2.45839,-2.4584 2.49007,-2.63677 0.8,-4.50429 -0.98985,-1.09377 -1.75977,-3.51074 -1.75977,-5.52437 0,-7.50193 10.46113,-11.35045 15.94545,-5.86613 2.9246,2.9246 3.33803,8.91175 0.80841,11.70694 -1.54075,1.70251 -1.47673,1.98838 1,4.46511 4.95673,4.95673 2.943,13.09795 -3.95243,15.97904 -4.06162,1.69705 -5.03666,1.69246 -9.02313,-0.0426 z m 10.54912,-5.19794 c 1.13992,-1.44917 2.07258,-3.41348 2.07258,-4.36514 0,-0.95166 -0.93266,-2.91597 -2.07258,-4.36514 -1.59866,-2.03236 -2.95404,-2.63486 -5.92742,-2.63486 -2.97338,0 -4.32876,0.6025 -5.92742,2.63486 -1.13992,1.44917 -2.07258,3.41348 -2.07258,4.36514 0,0.95166 0.93266,2.91597 2.07258,4.36514 1.59866,2.03236 2.95404,2.63486 5.92742,2.63486 2.97338,0 4.32876,-0.6025 5.92742,-2.63486 z m -0.89981,-17.41672 c 1.6681,-3.11688 0.77763,-6.21138 -2.27761,-7.915 -2.47108,-1.37789 -3.02892,-1.37789 -5.5,0 -3.05524,1.70362 -3.94571,4.79812 -2.27761,7.915 0.82122,1.53445 2.0885,2.05158 5.02761,2.05158 2.93911,0 4.20639,-0.51713 5.02761,-2.05158 z m 209.97239,52.55158 0,-23.5 -71.5,0 -71.5,0 0,23.5 0,23.5 71.5,0 71.5,0 0,-23.5 z m -74.643,15.48378 c -2.72901,-1.06991 -5.357,-4.79605 -5.357,-7.5955 0,-1.19169 0.84721,-3.21297 1.88268,-4.49173 1.70662,-2.10757 1.74226,-2.53933 0.38113,-4.61668 -1.24753,-1.90397 -1.29086,-2.80036 -0.2561,-5.29849 2.0597,-4.97254 8.84151,-5.43115 12.26408,-0.82934 1.80109,2.42166 1.84527,2.90694 0.5086,5.58635 -1.32752,2.66109 -1.29234,3.14611 0.37789,5.20875 2.46819,3.04808 2.32182,6.41715 -0.40828,9.39791 -2.5787,2.81545 -6.28585,3.85688 -9.393,2.63873 z m 7.12557,-3.60921 c 0.98397,-0.98397 1.50546,-2.8514 1.32143,-4.73195 -0.61694,-6.3043 -10.804,-6.05489 -10.804,0.26451 0,5.39199 5.81735,8.13266 9.48257,4.46744 z m 0.17583,-15.14965 c 0.68153,-2.71545 -1.55159,-5.22492 -4.64953,-5.22492 -4.16304,0 -5.63558,6.46269 -1.79617,7.88298 3.27828,1.21272 5.72771,0.20263 6.4457,-2.65806 z m -25.6584,8.20769 c 0,-10.11231 -0.0861,-10.54005 -2,-9.93261 -2.67232,0.84816 -2.53037,-0.65311 0.31445,-3.32569 4.29133,-4.03149 4.68555,-3.12066 4.68555,10.82569 0,10.88889 -0.24359,13 -1.5,13 -1.2387,0 -1.5,-1.84082 -1.5,-10.56739 z m 42.55806,-0.35907 c 2.44307,-6.07791 4.44194,-11.28087 4.44194,-11.56214 0,-0.28127 -2.925,-0.5114 -6.5,-0.5114 -5.11111,0 -6.5,-0.32051 -6.5,-1.5 0,-1.21661 1.6186,-1.5 8.56739,-1.5 7.70715,0 8.51088,0.17571 8.00459,1.75 -3.16777,9.85002 -9.43072,23.7917 -10.80687,24.05672 -1.31418,0.25309 -0.7471,-1.92616 2.79295,-10.73318 z m -861.55806,-52.57354 0,-23.5 -23.5,0 -23.5,0 0,23.5 0,23.5 23.5,0 23.5,0 0,-23.5 z m -34.978,17.75 c 0.0121,-0.4125 2.2301,-4.29121 4.92889,-8.61935 l 4.90691,-7.86936 -5.40643,-8.38064 c -4.96984,-7.70388 -5.22655,-8.37942 -3.1789,-8.36547 1.69859,0.0116 3.20068,1.68889 6.32575,7.06366 l 4.09822,7.04847 4.19644,-7.06366 c 2.98525,-5.02493 4.77782,-7.06365 6.2108,-7.06365 1.34451,0 1.76514,0.41567 1.26493,1.25 -0.41218,0.6875 -2.68874,4.2921 -5.05902,8.01023 -2.37027,3.71812 -4.30959,7.05535 -4.30959,7.41607 0,0.36071 1.95781,3.8436 4.3507,7.73977 2.39288,3.89616 4.66944,7.64643 5.05901,8.33393 0.46532,0.82116 0.0156,1.25 -1.3109,1.25 -1.42808,0 -3.12873,-1.89734 -5.80902,-6.48084 -2.08438,-3.56447 -4.10938,-6.48947 -4.5,-6.5 -0.39061,-0.0105 -2.41561,2.89722 -4.5,6.46168 -2.35368,4.025 -4.45293,6.48811 -5.53979,6.5 -0.9625,0.0105 -1.7401,-0.31834 -1.728,-0.73084 z m 130.978,-17.75 0,-23.5 -23.5,0 -23.5,0 0,23.5 0,23.5 23.5,0 23.5,0 0,-23.5 z m -32.83333,17.67351 c 0.18333,-0.45458 3.91625,-8.55458 8.29537,-18 5.89959,-12.72496 8.41865,-17.17351 9.72475,-17.17351 1.54072,0 1.34501,0.91305 -1.55401,7.25 -1.82419,3.9875 -5.52533,12.07493 -8.22475,17.97207 -3.61208,7.89093 -5.39212,10.72945 -6.74136,10.75 -1.00834,0.0154 -1.68334,-0.34399 -1.5,-0.79856 z m 128.83333,-17.67351 0,-23.5 -23.5,0 -23.5,0 0,23.5 0,23.5 23.5,0 23.5,0 0,-23.5 z m -32.83333,17.67351 c 0.18333,-0.45458 3.91625,-8.55458 8.29537,-18 5.89959,-12.72496 8.41865,-17.17351 9.72475,-17.17351 1.54072,0 1.34501,0.91305 -1.55401,7.25 -1.82419,3.9875 -5.52533,12.07493 -8.22475,17.97207 -3.61208,7.89093 -5.39212,10.72945 -6.74136,10.75 -1.00834,0.0154 -1.68334,-0.34399 -1.5,-0.79856 z m 128.83333,-17.67351 0,-23.5 -23.5,0 -23.5,0 0,23.5 0,23.5 23.5,0 23.5,0 0,-23.5 z m -30.91689,14.75 c 14.07399,-15.1268 13.91768,-14.90822 13.90158,-19.44014 -0.0174,-4.90939 -0.56285,-6.02486 -3.77246,-7.71555 -2.86347,-1.50836 -6.11759,-0.56779 -8.71223,2.51819 -1.41996,1.68884 -2.41468,2.11313 -3.42984,1.46295 -1.15203,-0.73785 -0.73431,-1.6113 2.15,-4.49561 2.72899,-2.72899 4.40343,-3.57984 7.04498,-3.57984 6.56335,0 11.74198,7.13811 10.21673,14.08253 -0.37153,1.69158 -3.58798,6.41502 -7.14766,10.49653 l -6.47215,7.42094 7.06897,0 c 5.61686,0 7.06897,0.30813 7.06897,1.5 0,1.2399 -1.85588,1.5 -10.70295,1.5 l -10.70295,0 3.48901,-3.75 z m 126.916898,-14.75 0,-23.5 -23.5,0 -23.5,0 0,23.5 0,23.5 23.5,0 23.5,0 0,-23.5 z m -34.978,17.75 c 0.0121,-0.4125 2.2301,-4.29121 4.92889,-8.61935 l 4.90691,-7.86936 -5.40643,-8.38064 c -4.96984,-7.70388 -5.22655,-8.37942 -3.1789,-8.36547 1.69859,0.0116 3.20068,1.68889 6.32575,7.06366 l 4.09822,7.04847 4.19644,-7.06366 c 2.98525,-5.02493 4.77782,-7.06365 6.21079,-7.06365 1.34452,0 1.76515,0.41567 1.26494,1.25 -0.41218,0.6875 -2.68874,4.2921 -5.05902,8.01023 -2.37027,3.71812 -4.30959,7.05535 -4.30959,7.41607 0,0.36071 1.95781,3.8436 4.3507,7.73977 2.39288,3.89616 4.66944,7.64643 5.05901,8.33393 0.46532,0.82116 0.0156,1.25 -1.3109,1.25 -1.42808,0 -3.12873,-1.89734 -5.80902,-6.48084 -2.08438,-3.56447 -4.10938,-6.48947 -4.5,-6.5 -0.39061,-0.0105 -2.41561,2.89722 -4.5,6.46168 -2.35369,4.025 -4.45294,6.48811 -5.53979,6.5 -0.9625,0.0105 -1.7401,-0.31834 -1.728,-0.73084 z m 130.978,-17.75 0,-23.5 -23.5,0 -23.5,0 0,23.5 0,23.5 23.5,0 23.5,0 0,-23.5 z m -34.978,17.75 c 0.0121,-0.4125 2.2301,-4.29121 4.92889,-8.61935 l 4.90691,-7.86936 -5.40643,-8.38064 c -4.96984,-7.70388 -5.22655,-8.37942 -3.1789,-8.36547 1.69859,0.0116 3.20068,1.68889 6.32575,7.06366 l 4.09822,7.04847 4.19644,-7.06366 c 2.98525,-5.02493 4.77782,-7.06365 6.21079,-7.06365 1.34452,0 1.76515,0.41567 1.26494,1.25 -0.41218,0.6875 -2.68874,4.2921 -5.05902,8.01023 -2.37027,3.71812 -4.30959,7.05535 -4.30959,7.41607 0,0.36071 1.95781,3.8436 4.3507,7.73977 2.39288,3.89616 4.66944,7.64643 5.05901,8.33393 0.46532,0.82116 0.0156,1.25 -1.3109,1.25 -1.42808,0 -3.12873,-1.89734 -5.80902,-6.48084 -2.08438,-3.56447 -4.10938,-6.48947 -4.5,-6.5 -0.39061,-0.0105 -2.41561,2.89722 -4.5,6.46168 -2.35369,4.025 -4.45294,6.48811 -5.53979,6.5 -0.9625,0.0105 -1.7401,-0.31834 -1.728,-0.73084 z m 130.977992,-17.75 0,-23.5 -23.5,0 -23.5,0 0,23.5 0,23.5 23.5,0 23.5,0 0,-23.5 z m -34.978,17.75 c 0.0121,-0.4125 2.2301,-4.29121 4.92889,-8.61935 l 4.90691,-7.86936 -5.40643,-8.38064 c -4.96984,-7.70388 -5.22655,-8.37942 -3.1789,-8.36547 1.69859,0.0116 3.20068,1.68889 6.32575,7.06366 l 4.09822,7.04847 4.19644,-7.06366 c 2.98525,-5.02493 4.77782,-7.06365 6.21079,-7.06365 1.34452,0 1.76515,0.41567 1.26494,1.25 -0.41218,0.6875 -2.68874,4.2921 -5.05902,8.01023 -2.37027,3.71812 -4.30959,7.05535 -4.30959,7.41607 0,0.36071 1.95781,3.8436 4.3507,7.73977 2.39288,3.89616 4.66944,7.64643 5.05901,8.33393 0.46532,0.82116 0.0156,1.25 -1.3109,1.25 -1.42808,0 -3.12873,-1.89734 -5.80902,-6.48084 -2.08438,-3.56447 -4.10938,-6.48947 -4.5,-6.5 -0.39061,-0.0105 -2.41561,2.89722 -4.5,6.46168 -2.35369,4.025 -4.45294,6.48811 -5.53979,6.5 -0.9625,0.0105 -1.7401,-0.31834 -1.728,-0.73084 z m 130.978,-17.75 0,-23.5 -23.5,0 -23.5,0 0,23.5 0,23.5 23.5,0 23.5,0 0,-23.5 z m -31,3.5 c 0,-1.83333 0.66667,-2 8,-2 7.33333,0 8,0.16667 8,2 0,1.83333 -0.66667,2 -8,2 -7.33333,0 -8,-0.16667 -8,-2 z m 127,-3.5 0,-23.5 -23.5,0 -23.5,0 0,23.5 0,23.5 23.5,0 23.5,0 0,-23.5 z m -32.83333,17.67351 c 0.18333,-0.45458 3.91625,-8.55458 8.29537,-18 5.89959,-12.72496 8.41865,-17.17351 9.72475,-17.17351 1.54072,0 1.34501,0.91305 -1.55401,7.25 -1.82419,3.9875 -5.52533,12.07493 -8.22475,17.97207 -3.61208,7.89093 -5.39212,10.72945 -6.74136,10.75 -1.00834,0.0154 -1.68334,-0.34399 -1.5,-0.79856 z m 80.83333,-17.67351 0,-23.5 -23.5,0 -23.5,0 0,23.5 0,23.5 23.5,0 23.5,0 0,-23.5 z m -26.5142,18.47702 c -0.34773,-0.56263 0.97571,-3.89825 2.94098,-7.41248 1.96527,-3.51423 3.57322,-6.57596 3.57322,-6.80383 0,-0.22788 -1.3447,-0.21696 -2.98823,0.0243 -2.39954,0.35218 -3.68005,-0.25325 -6.5,-3.07319 -2.83148,-2.83149 -3.51177,-4.27773 -3.51177,-7.46576 0,-9.73276 12.52574,-13.78001 18.38002,-5.93885 3.44297,4.6115 2.61348,8.98248 -3.98518,20.99964 -3.22942,5.88126 -6.18782,10.69319 -6.57423,10.69319 -0.38642,0 -0.98708,-0.46034 -1.33481,-1.02298 z m 8.68546,-19.63201 c 2.27863,-2.06213 2.37042,-7.08898 0.17375,-9.51627 -2.44129,-2.6976 -8.78521,-2.46605 -10.78831,0.39377 -2.12332,3.03146 -1.9542,6.37999 0.4433,8.77749 2.44534,2.44534 7.65515,2.62206 10.17126,0.34501 z m 65.82874,1.15499 0,-23.5 -23.5,0 -23.5,0 0,23.5 0,23.5 23.5,0 23.5,0 0,-23.5 z m -32.83333,17.67351 c 0.18333,-0.45458 3.91625,-8.55458 8.29537,-18 5.89959,-12.72496 8.41865,-17.17351 9.72475,-17.17351 1.54072,0 1.34501,0.91305 -1.55401,7.25 -1.82419,3.9875 -5.52533,12.07493 -8.22475,17.97207 -3.61208,7.89093 -5.39212,10.72945 -6.74136,10.75 -1.00834,0.0154 -1.68334,-0.34399 -1.5,-0.79856 z m 80.83333,-17.67351 0,-23.5 -23.5,0 -23.5,0 0,23.5 0,23.5 23.5,0 23.5,0 0,-23.5 z m -34.978,17.75 c 0.0121,-0.4125 2.2301,-4.29121 4.92889,-8.61935 l 4.90691,-7.86936 -5.40643,-8.38064 c -4.96984,-7.70388 -5.22655,-8.37942 -3.1789,-8.36547 1.69859,0.0116 3.20068,1.68889 6.32575,7.06366 l 4.09822,7.04847 4.19646,-7.06366 c 2.9852,-5.02493 4.7778,-7.06365 6.2108,-7.06365 1.3445,0 1.7651,0.41567 1.2649,1.25 -0.4122,0.6875 -2.6887,4.2921 -5.059,8.01023 -2.3703,3.71812 -4.3096,7.05535 -4.3096,7.41607 0,0.36071 1.9578,3.8436 4.3507,7.73977 2.3929,3.89616 4.6694,7.64643 5.059,8.33393 0.4653,0.82116 0.016,1.25 -1.3109,1.25 -1.4281,0 -3.1287,-1.89734 -5.809,-6.48084 -2.08439,-3.56447 -4.10939,-6.48947 -4.50001,-6.5 -0.39061,-0.0105 -2.41561,2.89722 -4.5,6.46168 -2.35369,4.025 -4.45294,6.48811 -5.53979,6.5 -0.9625,0.0105 -1.7401,-0.31834 -1.728,-0.73084 z m -733.91286,-53.20141 c -1.31497,-0.32298 -3.05368,-1.58551 -3.86381,-2.80562 -1.31653,-1.98281 -1.29762,-2.28568 0.1781,-2.85196 0.93761,-0.3598 2.46823,0.10595 3.54215,1.07784 2.59986,2.35284 6.03442,1.17967 6.03442,-2.06124 0,-1.93068 -0.64322,-2.58626 -3,-3.05761 -3.88546,-0.77709 -4.29614,-4.35 -0.5,-4.35 1.97019,0 2.5,-0.50713 2.5,-2.39301 0,-2.89509 -2.37379,-4.01501 -5.01457,-2.36582 -1.52921,0.95501 -2.20315,0.93747 -3.21047,-0.0835 -1.03505,-1.04911 -0.9097,-1.56186 0.66617,-2.72496 2.71712,-2.00541 7.91883,-1.79739 9.90388,0.39607 1.83081,2.02302 2.22342,6.70191 0.64427,7.67788 -0.63977,0.3954 -0.45626,1.41628 0.5,2.78153 4.19465,5.9887 -0.94394,12.58686 -8.38014,10.76043 z m 287.206237,-0.0649 c -5.1708297,-2.06132 -5.5328797,-7.47684 -1.1007397,-16.46477 3.3776307,-6.84946 3.5079707,-6.98134 5.5932307,-5.65884 1.03594,0.65701 0.85947,1.58943 -0.84878,4.48469 -2.05045,3.47525 -2.06425,3.65522 -0.28036,3.65522 3.70125,0 6.32128,2.86061 6.32128,6.90172 0,5.53199 -4.78864,9.03373 -9.684631,7.08198 z m 5.184631,-6.49739 c 0,-2.51434 -0.39294,-2.98631 -2.4863,-2.98631 -2.849121,0 -3.8913607,2.73755 -1.93824,5.09093 2.0087,2.42033 4.42454,1.27118 4.42454,-2.10462 z m 185.899652,6.0615 c -4.74558,-2.02875 -5.9216,-7.02587 -2.46657,-10.4809 1.65657,-1.65656 1.72809,-2.10322 0.5,-3.12244 -1.98958,-1.6512 -1.79096,-5.31063 0.39565,-7.28948 2.31613,-2.09608 8.53827,-2.14512 10.59983,-0.0836 1.78356,1.78356 2.09317,6.50683 0.52905,8.07095 -0.72318,0.72318 -0.57006,1.43437 0.5,2.32245 2.09045,1.73492 1.96417,7.35868 -0.20762,9.24587 -2.6496,2.3024 -6.40116,2.81164 -9.85034,1.33711 z m 7.41027,-5.73055 c 0.54879,-4.75027 -5.91152,-6.22328 -7.35448,-1.67689 -0.8582,2.70394 1.35843,5.0206 4.45895,4.66019 1.96668,-0.22862 2.65979,-0.94274 2.89553,-2.9833 z m -1.96154,-8.7024 c 2.02414,-1.28275 0.94985,-4.5694 -1.61308,-4.935 -2.68733,-0.38334 -4.00654,2.18594 -2.22474,4.33288 1.41425,1.70407 1.96311,1.79018 3.83782,0.60212 z m -674.84839,6.41652 c 0,-6.66673 -0.28507,-8.35922 -1.33979,-7.95449 -0.73688,0.28277 -1.88053,-0.13743 -2.54144,-0.93378 -0.97773,-1.1781 -0.65272,-1.83878 1.74416,-3.54551 5.6982,-4.05747 6.13707,-3.3851 6.13707,9.4024 0,10.83333 -0.11594,11.5 -2,11.5 -1.84256,0 -2,-0.66667 -2,-8.46862 z m 90.63651,7.21862 c 0.415,-0.6875 2.46885,-3.43082 4.56412,-6.09626 4.64867,-5.91368 5.65296,-9.22872 3.46015,-11.42153 -1.4647,-1.4647 -1.76329,-1.44941 -3.56664,0.18259 -3.22668,2.92011 -5.60527,0.23919 -2.52271,-2.84337 2.51558,-2.51558 6.97288,-1.96621 9.43415,1.16279 2.61096,3.31931 2.13013,7.088 -1.51388,11.86555 -3.15811,4.1405 -3.12811,4.40023 0.5083,4.40023 2.33333,0 3,0.44444 3,2 0,1.81112 -0.66667,2 -7.05902,2 -5.38297,0 -6.87986,-0.29679 -6.30447,-1.25 z m 199.36349,-1.25 c 0,-2.2963 -0.36667,-2.5 -4.5,-2.5 -2.475,0 -4.5,-0.22927 -4.5,-0.5095 0,-0.28023 2.06583,-4.33023 4.59073,-9 3.29085,-6.08638 5.13135,-8.4905 6.5,-8.4905 1.69719,0 1.90927,0.77755 1.90927,7 0,5.55556 0.30952,7 1.5,7 0.83333,0 1.5,0.88889 1.5,2 0,1.11111 -0.66667,2 -1.5,2 -0.93333,0 -1.5,0.94444 -1.5,2.5 0,1.83333 -0.53333,2.5 -2,2.5 -1.46667,0 -2,-0.66667 -2,-2.5 z m 0,-10.16667 c 0,-4.12597 -0.0968,-4.10916 -2.3985,0.41667 -1.59744,3.14103 -1.58494,3.25 0.37282,3.25 1.66593,0 2.02568,-0.65117 2.02568,-3.66667 z m 88.972754,9.91667 -2.1724,-2.75 2.10148,-0.31977 c 1.15582,-0.17587 2.807894,0.38663 3.671264,1.25 3.05885,3.05885 6.7485,1.26696 6.25699,-3.03874 -0.30749,-2.69357 -0.66108,-2.91259 -5.1659,-3.19979 l -4.835824,-0.30829 0.70015,-5.19171 c 0.38508,-2.85543 0.90026,-5.5292 1.144844,-5.9417 0.24458,-0.4125 2.66813,-0.75 5.38567,-0.75 4.27431,0 4.94098,0.26985 4.94098,2 0,1.60703 -0.66667,2 -3.39301,2 -2.17149,0 -3.61153,0.56946 -4,1.58179 -0.89191,2.32428 -0.82362,2.41821 1.75815,2.41821 4.12973,0 7.63486,3.63493 7.63486,7.91759 0,4.88615 -2.40519,7.08241 -7.75616,7.08241 -3.27798,0 -4.53367,-0.55065 -6.271094,-2.75 z m 197.099036,-6.44158 c 1.59824,-5.11963 2.91091,-9.42092 2.91705,-9.55842 0.006,-0.1375 -2.01384,-0.25 -4.48884,-0.25 -3.83333,0 -4.5,-0.2963 -4.5,-2 0,-1.82222 0.66667,-2 7.5,-2 4.125,0 7.49801,0.1125 7.49557,0.25 -0.002,0.1375 -1.51963,5.2 -3.37155,11.25 -3.05574,9.98275 -3.60252,11.02852 -5.91262,11.30842 l -2.54549,0.30841 2.90588,-9.30841 z m 191.98604,8.22732 c -1.08393,-0.6699 -0.91236,-1.53504 0.8793,-4.43402 l 2.22599,-3.60172 -2.50898,0 c -2.74147,0 -6.65414,-4.11604 -6.65414,-7 0,-0.95166 0.93266,-2.91597 2.07258,-4.36514 4.71425,-5.9932 13.85061,-1.36943 12.415,6.28304 -0.67919,3.6204 -4.85032,12.57022 -6.26631,13.44535 -0.44922,0.27763 -1.42277,0.13025 -2.16344,-0.32751 z m 4.3038,-13.53574 c 1.3564,-3.53474 -2.57988,-6.71032 -5.14195,-4.14825 -2.07279,2.07278 -0.65436,5.64825 2.24072,5.64825 1.27909,0 2.58464,-0.675 2.90123,-1.5 z m 106.63837,6.03138 c 0,-6.66673 -0.28507,-8.35922 -1.33979,-7.95449 -0.73688,0.28277 -1.88053,-0.13743 -2.54144,-0.93378 -0.97773,-1.1781 -0.65272,-1.83878 1.74416,-3.54551 5.6982,-4.05747 6.13707,-3.3851 6.13707,9.4024 0,10.83333 -0.11594,11.5 -2,11.5 -1.84256,0 -2,-0.66667 -2,-8.46862 z m 14.52596,6.4973 c -3.75908,-4.15373 -3.73639,-14.9287 0.0402,-19.10179 2.31927,-2.56278 6.8628,-2.45619 9.35555,0.21946 3.90636,4.19298 3.57995,15.20912 -0.57372,19.36279 -2.10243,2.10243 -6.71174,1.8514 -8.82204,-0.48046 z m 7.26544,-4.10765 c 1.66445,-3.12039 0.9346,-10.63125 -1.2413,-12.7741 -1.55373,-1.53013 -1.77438,-1.50926 -3.11122,0.2942 -1.68273,2.2701 -1.91414,10.80231 -0.37118,13.68538 1.30693,2.442 3.00992,2.0074 4.7237,-1.20548 z"
       id="path2829" />
  </g>
</svg>
